<svg xmlns="http://www.w3.org/2000/svg" width="552" height="427.298" viewBox="0 0 552 427.298"><g transform="translate(-763.095 -37.761)"><g transform="translate(763.095 37.761)"><path d="M768.777,298.875C738.71,222.049,834.028,120.21,912.326,76.055c14.23-8.029,114.356-62.376,233.535-25.715,30.968,9.532,101.494,31.23,141.406,98.56,57.081,96.3,20.692,233.928-57.851,289.239-10.836,7.631-52.074,36.677-96.413,23.568-52.692-15.576-85.834-83.618-70.7-124.265,12.611-33.875,52.111-30.884,64.277-68.561,10.1-31.277-21.09-75.679-40.709-77.135-57.846-4.284-94.271,36.425-89.987,111.413,3.147,55.033-67.294,63.649-107.124,66.419C840.916,372.9,785.767,342.292,768.777,298.875Z" transform="translate(-763.095 -37.761)" fill="#32a277" fill-rule="evenodd"/></g></g></svg>